<svg width="74" height="77" viewBox="0 0 74 77" fill="none" xmlns="http://www.w3.org/2000/svg">
<path d="M37 70.5833C36.2806 70.5833 35.6639 70.3694 35.15 69.9417C34.6361 69.5139 34.2507 68.9524 33.9938 68.2573C33.0174 65.2628 31.7841 62.4555 30.2938 59.8354C28.8549 57.2153 26.825 54.1406 24.2042 50.6114C21.5834 47.0823 19.4507 43.7135 17.8063 40.5052C16.2132 37.2969 15.4167 33.4201 15.4167 28.875C15.4167 22.6187 17.4979 17.325 21.6604 12.9937C25.8743 8.60902 30.9875 6.41666 37 6.41666C43.0125 6.41666 48.1 8.60902 52.2625 12.9937C56.4764 17.325 58.5834 22.6187 58.5834 28.875C58.5834 33.741 57.684 37.8048 55.8854 41.0667C54.1382 44.275 52.1084 47.4566 49.7959 50.6114C47.0209 54.4614 44.9139 57.6698 43.475 60.2364C42.0875 62.7496 40.9313 65.4233 40.0063 68.2573C39.7493 69.0059 39.3382 69.5941 38.7729 70.0219C38.259 70.3962 37.6681 70.5833 37 70.5833ZM37 59.1135C37.8736 57.2955 38.85 55.5042 39.9292 53.7396C41.0597 51.975 42.7042 49.6222 44.8625 46.6812C47.0722 43.6868 48.8709 40.933 50.2584 38.4198C51.6972 35.8531 52.4167 32.6715 52.4167 28.875C52.4167 24.4368 50.9007 20.667 47.8688 17.5656C44.8882 14.4108 41.2653 12.8333 37 12.8333C32.7347 12.8333 29.0861 14.4108 26.0542 17.5656C23.0736 20.667 21.5834 24.4368 21.5834 28.875C21.5834 32.6715 22.2771 35.8531 23.6646 38.4198C25.1035 40.933 26.9278 43.6868 29.1375 46.6812C31.2959 49.6222 32.9146 51.975 33.9938 53.7396C35.1243 55.5042 36.1264 57.2955 37 59.1135ZM37 36.8958C39.1584 36.8958 40.9827 36.1205 42.4729 34.5698C43.9632 33.0191 44.7084 31.1208 44.7084 28.875C44.7084 26.6292 43.9632 24.7309 42.4729 23.1802C40.9827 21.6295 39.1584 20.8542 37 20.8542C34.8417 20.8542 33.0174 21.6295 31.5271 23.1802C30.0368 24.7309 29.2917 26.6292 29.2917 28.875C29.2917 31.1208 30.0368 33.0191 31.5271 34.5698C33.0174 36.1205 34.8417 36.8958 37 36.8958Z" fill="#FEF7FF"/>
</svg>
