<svg width="45" height="42" viewBox="0 0 45 42" fill="none" xmlns="http://www.w3.org/2000/svg">
<path d="M7.5 35C6.46875 35 5.58594 34.6573 4.85156 33.9719C4.11719 33.2865 3.75 32.4625 3.75 31.5V10.5C3.75 9.5375 4.11719 8.71354 4.85156 8.02813C5.58594 7.34271 6.46875 7 7.5 7H37.5C38.5313 7 39.4141 7.34271 40.1484 8.02813C40.8828 8.71354 41.25 9.5375 41.25 10.5V31.5C41.25 32.4625 40.8828 33.2865 40.1484 33.9719C39.4141 34.6573 38.5313 35 37.5 35H7.5ZM22.5 22.75L7.5 14V31.5H37.5V14L22.5 22.75ZM22.5 19.25L37.5 10.5H7.5L22.5 19.25ZM7.5 14V10.5V31.5V14Z" fill="#FEF7FF"/>
</svg>
