<svg width="46" height="44" viewBox="0 0 46 44" fill="none" xmlns="http://www.w3.org/2000/svg">
<path d="M23 22C20.8917 22 19.0868 21.2819 17.5854 19.8458C16.084 18.4097 15.3333 16.6833 15.3333 14.6667C15.3333 12.65 16.084 10.9236 17.5854 9.4875C19.0868 8.05138 20.8917 7.33333 23 7.33333C25.1083 7.33333 26.9132 8.05138 28.4146 9.4875C29.916 10.9236 30.6667 12.65 30.6667 14.6667C30.6667 16.6833 29.916 18.4097 28.4146 19.8458C26.9132 21.2819 25.1083 22 23 22ZM7.66667 36.6667V31.5333C7.66667 30.4944 7.94619 29.5396 8.50521 28.6687C9.06424 27.7979 9.80695 27.1333 10.7333 26.675C12.7139 25.7278 14.7264 25.0174 16.7708 24.5437C18.8153 24.0701 20.8917 23.8333 23 23.8333C25.1083 23.8333 27.1847 24.0701 29.2292 24.5437C31.2736 25.0174 33.2861 25.7278 35.2667 26.675C36.1931 27.1333 36.9358 27.7979 37.4948 28.6687C38.0538 29.5396 38.3333 30.4944 38.3333 31.5333V36.6667H7.66667ZM11.5 33H34.5V31.5333C34.5 31.1972 34.4122 30.8917 34.2365 30.6167C34.0608 30.3417 33.8292 30.1278 33.5417 29.975C31.8167 29.15 30.0757 28.5312 28.3188 28.1187C26.5618 27.7062 24.7889 27.5 23 27.5C21.2111 27.5 19.4382 27.7062 17.6813 28.1187C15.9243 28.5312 14.1833 29.15 12.4583 29.975C12.1708 30.1278 11.9392 30.3417 11.7635 30.6167C11.5879 30.8917 11.5 31.1972 11.5 31.5333V33ZM23 18.3333C24.0542 18.3333 24.9566 17.9743 25.7073 17.2562C26.458 16.5382 26.8333 15.675 26.8333 14.6667C26.8333 13.6583 26.458 12.7951 25.7073 12.0771C24.9566 11.359 24.0542 11 23 11C21.9458 11 21.0434 11.359 20.2927 12.0771C19.542 12.7951 19.1667 13.6583 19.1667 14.6667C19.1667 15.675 19.542 16.5382 20.2927 17.2562C21.0434 17.9743 21.9458 18.3333 23 18.3333Z" fill="#FEF7FF"/>
</svg>
