<svg width="66" height="71" viewBox="0 0 66 71" fill="none" xmlns="http://www.w3.org/2000/svg">
<path fill-rule="evenodd" clip-rule="evenodd" d="M19.2908 26.0348C19.2908 23.1965 19.1066 23.327 20.8502 21.0285C21.2376 20.5177 22.82 19.0287 23.549 19.0287C24.8397 19.0287 25.5468 19.1716 26.8135 19.1716L28.2859 23.2646C28.7739 24.645 29.7943 26.6015 29.7943 27.6075C29.7943 28.2323 26.8137 30.945 26.8137 31.182C26.8137 32.8816 32.2248 38.1857 33.8658 39.5199C37.4141 42.4051 37.1386 41.7417 37.9881 40.8656C38.3448 40.4978 38.5409 40.4524 38.9165 40.0849C40.9912 38.0551 40.82 38.4613 42.8929 39.2911C44.1342 39.788 48.0465 41.3726 49.0979 41.6194C49.0979 42.519 49.5143 44.6719 49.213 45.3248C49.2119 45.3272 49.0995 45.5012 49.0549 45.568C48.1772 46.8806 46.9433 48.1787 45.5066 48.8683C44.3329 49.4316 43.5989 49.3137 42.2741 49.2083C37.6983 48.8447 34.8127 47.2212 31.2695 44.8516C29.484 43.6575 27.663 41.96 26.138 40.4411L23.4894 37.247C21.6958 34.6487 19.2907 30.2998 19.2907 26.0346L19.2908 26.0348ZM6.37432 32.3259C6.37432 37.3258 6.63657 39.525 8.52299 44.1735C9.50642 46.5971 10.7903 48.4891 12.3347 50.4854C12.5924 50.8186 12.8231 51.0081 13.0453 51.3423C12.6673 52.9769 10.3674 60.3526 10.3484 61.208L15.499 59.2473C16.4037 58.8819 17.1315 58.6111 18.0554 58.2481C22.6893 56.4268 19.0899 57.6636 25.7891 59.38C31.9356 60.9548 38.4677 60.7364 44.132 57.9216C46.5075 56.7411 47.8957 55.9236 49.9695 54.2222C55.3508 49.8074 59.6011 41.9861 59.6011 34.8996C59.6011 29.7741 59.2325 26.2918 57.0006 21.7912C55.6737 19.1156 54.8179 18.0324 53.0931 15.8618C52.6543 15.3096 51.9984 14.7306 51.4751 14.203C44.2912 6.96111 31.7631 4.35158 22.3186 8.9249C19.2476 10.4118 17.0422 11.6337 14.4999 14.203C10.9638 17.7768 8.52329 21.6814 7.22442 26.6055C6.82206 28.1309 6.37402 30.4356 6.37402 32.3259H6.37432Z" fill="#FEFEFE" stroke="#373435" stroke-width="0.75556" stroke-miterlimit="22.9256"/>
<path fill-rule="evenodd" clip-rule="evenodd" d="M4.64743 68.2378C4.6461 68.1889 4.71151 68.0982 4.71785 68.1182C4.72419 68.1384 4.75424 68.0425 4.76264 68.0203L4.9854 67.2438C5.06806 66.8999 5.16191 66.5229 5.26739 66.098C5.44611 65.3781 5.63749 64.6066 5.83521 63.8103L8.10616 54.6595C8.2311 54.1563 8.73571 53.0295 8.48142 52.4999C8.09011 51.6851 5.67697 49.5416 3.58885 43.2816C0.627505 34.4036 1.85506 25.919 5.99565 18.0751C8.96451 12.4512 13.5452 8.66429 18.8691 5.5926C21.3438 4.16473 26.1895 2.73492 29.3552 2.42949C33.6407 2.01602 35.6122 2.04377 39.909 2.97728C43.5077 3.75912 47.5301 5.54511 50.5755 7.67453C53.6822 9.84699 56.1365 12.4147 58.3461 15.4317C58.875 16.1539 59.3904 16.9657 59.8367 17.7908C60.3293 18.7017 60.7874 19.4374 61.2039 20.4169C65.1216 29.6329 65.1001 40.0722 59.9458 48.8294C59.6644 49.3076 59.5696 49.5379 59.2618 49.999C57.6407 52.4282 55.3273 55.4262 52.9909 57.2653C52.5789 57.5896 52.4166 57.7751 51.9779 58.1035C49.6308 59.8604 48.6213 60.468 45.9776 61.7818C39.4629 65.0192 31.6347 65.3293 24.6831 63.497C19.6657 62.1745 22.0655 61.4265 17.9115 63.1065L5.66165 67.9244C5.60876 67.945 5.31174 68.0601 5.25502 68.0866L4.64787 68.2376L4.64743 68.2378ZM0.554871 32.04C0.554871 37.5201 0.688353 39.342 2.4519 44.5701C3.15379 46.6508 5.07292 50.4636 6.43691 52.2812C7.24767 53.3617 6.73672 53.8852 6.06195 56.6037C5.6836 58.128 5.29995 59.6745 4.89818 61.2935L2.54207 70.6445C3.18753 70.63 7.17901 68.9775 8.26042 68.5409L19.5956 64.0875C20.7083 63.6271 20.3505 63.5934 21.4716 64.0115C24.7456 65.2326 26.469 65.5718 29.9742 66.031C32.9053 66.4151 36.8295 65.9851 39.6924 65.4591C44.5652 64.5639 50.1959 61.7046 53.8925 58.4593C56.8005 55.9063 59.17 53.2531 61.1567 49.7632C62.4717 47.4533 63.4556 45.1083 64.2691 42.3178C65.0336 39.6954 65.6204 36.0774 65.4425 33.0205C65.394 32.186 65.4769 31.3265 65.3622 30.5264C65.2384 29.6637 65.191 28.9603 65.0578 28.1165C63.8078 20.2013 59.948 13.806 54.1749 8.62451L50.2616 5.70347C46.492 3.24635 40.2082 0.727203 34.0529 0.727203C26.1596 0.727203 20.7223 2.26386 14.35 6.6162C12.8524 7.63921 11.3666 8.92446 10.1007 10.1996C4.67763 15.663 0.555313 23.9816 0.555313 32.04H0.554871Z" fill="#FEFEFE" stroke="#373435" stroke-width="0.75556" stroke-miterlimit="22.9256"/>
</svg>
