<svg width="204" height="287" viewBox="0 0 204 287" fill="none" xmlns="http://www.w3.org/2000/svg">
<path d="M184.646 263.581L101.494 286.628L18.5723 263.615L0.0888672 56.3447H203.151L184.646 263.581ZM38.0352 96.9414L38.6426 103.763L39.8008 116.651L40.3281 122.361H101.717V122.35H137.566L135.25 148.377H71.3779L71.9854 155.199L73.1436 168.087L73.6367 173.798H101.609V173.82H133.014L130.052 206.73L101.696 214.379V214.405H101.651L73.3418 206.758L71.5303 186.486H46.0303L49.5957 226.398L101.674 240.892H101.823V240.829L153.81 226.418L154.188 222.118L158.613 172.7H158.603L164.752 103.763L165.359 96.9414H38.0352Z" fill="white"/>
<path d="M159.216 10.606H142.372L159.892 29.6281V38.6747H123.797V28.0802H141.317L123.797 9.05812V0H159.227L159.216 10.606ZM116.631 10.606H99.7647L117.308 29.6281V38.6747H81.2013V28.0802H98.7213L81.2013 9.05812V0H116.631V10.606ZM74.4592 11.0417H56.2857V27.6445H74.4592V38.6862H43.3521V0H74.4592V11.0417Z" fill="white"/>
</svg>